<svg version="1.0" xmlns="http://www.w3.org/2000/svg"
 width="600.000000pt" height="600.000000pt" viewBox="0 0 600.000000 600.000000"
 preserveAspectRatio="xMidYMid meet">
<g transform="translate(0.000000,600.000000) scale(0.100000,-0.100000)"
fill="currentColor" stroke="currentColor">
<path strokeWidth="inherit" d="M2730 5816 c-243 -29 -436 -73 -651 -149 -704 -249 -1285 -771 -1614
-1451 -211 -435 -295 -835 -282 -1336 7 -246 22 -358 78 -587 250 -1025 1068
-1829 2091 -2057 242 -54 303 -60 618 -61 239 0 316 3 405 18 181 30 332 66
485 117 924 306 1630 1062 1871 2006 99 388 116 817 48 1199 -137 768 -576
1435 -1224 1861 -341 223 -739 372 -1151 430 -153 21 -529 27 -674 10z m160
-1721 l0 -1505 -1224 0 -1224 0 -9 68 c-4 37 -8 189 -8 337 0 293 9 375 65
603 265 1080 1172 1873 2280 1995 19 2 54 5 78 5 l42 2 0 -1505z m569 1474
c252 -43 477 -116 716 -234 618 -305 1074 -834 1298 -1505 19 -58 38 -122 42
-142 l7 -38 -1201 0 -1201 0 0 977 0 976 108 -6 c59 -4 163 -16 231 -28z
m2114 -2171 c17 -65 29 -319 23 -468 -30 -770 -385 -1473 -988 -1957 -295
-237 -686 -425 -1054 -507 -128 -29 -314 -56 -384 -56 l-50 0 0 1505 0 1505
1224 0 1224 0 5 -22z m-2685 -2015 l-3 -978 -70 3 c-321 14 -689 116 -1012
281 -619 316 -1094 897 -1288 1575 -14 48 -25 90 -25 92 0 2 540 4 1200 4
l1200 0 -2 -977z"/>
</g>
</svg>